<?xml version="1.0" standalone="no"?>
<!DOCTYPE svg PUBLIC "-//W3C//DTD SVG 20010904//EN"
 "http://www.w3.org/TR/2001/REC-SVG-20010904/DTD/svg10.dtd">
<svg version="1.0" xmlns="http://www.w3.org/2000/svg"
 width="212.000000pt" height="170.000000pt" viewBox="0 0 212.000000 170.000000"
 preserveAspectRatio="xMidYMid meet">

<g transform="translate(0.000000,170.000000) scale(0.100000,-0.100000)"
fill="#000000" stroke="none">
<path d="M992 1629 c-209 -35 -405 -160 -518 -331 -221 -331 -153 -776 156
-1025 311 -251 771 -217 1042 76 82 88 131 173 170 291 28 87 31 106 31 230 0
125 -2 142 -31 230 -40 121 -89 204 -175 296 -170 183 -433 273 -675 233z
m303 -43 c223 -59 417 -232 503 -446 75 -188 67 -397 -23 -585 -94 -198 -258
-336 -470 -397 -112 -32 -278 -32 -390 0 -207 60 -372 196 -466 387 -113 232
-102 484 32 713 44 73 168 197 241 241 74 43 161 78 240 96 79 18 249 13 333
-9z"/>
<path d="M980 1574 c-57 -11 -158 -48 -210 -77 -156 -87 -277 -231 -337 -402
-25 -73 -28 -92 -28 -225 0 -133 3 -152 28 -225 38 -108 102 -207 184 -286
136 -131 274 -189 464 -197 138 -5 238 16 357 75 150 75 295 243 345 401 36
110 38 125 38 233 0 310 -186 570 -483 676 -62 22 -93 26 -203 29 -71 1 -141
0 -155 -2z m69 -83 c3 -86 -52 -97 -75 -15 -8 28 -8 41 0 46 19 13 22 9 22
-27 0 -39 18 -65 34 -49 6 6 6 22 0 44 -8 30 -3 47 16 50 0 0 2 -22 3 -49z
m81 17 l22 -33 -6 33 c-5 28 -3 33 11 30 14 -3 17 -12 14 -53 -3 -56 -8 -67
-21 -45 -5 8 -16 24 -25 35 -16 19 -16 19 -11 -12 5 -29 3 -33 -15 -33 -15 0
-19 5 -15 16 3 9 6 33 6 55 0 48 11 49 40 7z m110 -3 c-2 -11 -4 -35 -5 -52 0
-24 -5 -33 -17 -33 -20 0 -33 17 -18 22 6 2 12 22 13 46 1 33 5 42 17 39 9 -2
13 -10 10 -22z m73 -37 l-4 -33 18 28 c10 15 23 27 30 27 19 0 17 -3 -27 -51
l-40 -44 0 47 c0 25 -3 54 -7 63 -5 15 -3 16 14 7 15 -8 19 -19 16 -44z m-437
13 c-3 -5 1 -22 9 -37 25 -49 19 -59 -20 -35 -36 21 -47 14 -19 -13 8 -9 12
-20 9 -26 -12 -19 -22 -10 -35 30 -7 22 -17 40 -22 40 -4 0 -8 5 -8 10 0 15
28 12 55 -6 27 -18 34 -4 10 19 -15 16 -10 27 12 27 8 0 12 -4 9 -9z m554 -26
c31 -16 41 -45 15 -45 -15 0 -19 -10 -16 -42 2 -11 -5 -18 -16 -18 -20 0 -75
39 -56 40 16 0 46 57 38 70 -9 14 1 12 35 -5z m-653 -74 c31 -21 39 -31 30
-40 -16 -16 -27 -14 -27 6 0 9 -3 13 -7 9 -5 -4 -8 -17 -8 -29 0 -34 -22 -30
-28 5 -4 18 -9 43 -13 56 -8 29 2 28 53 -7z m745 12 c19 -17 25 -53 8 -53 -6
0 -17 -14 -24 -31 -15 -36 -30 -23 -20 17 5 19 4 25 -5 20 -6 -4 -11 -14 -11
-22 0 -17 -12 -18 -27 -3 -9 9 -4 18 18 36 16 14 29 31 29 39 0 18 9 18 32 -3z
m-277 -28 c118 -31 227 -112 297 -219 40 -62 78 -168 78 -217 0 -34 13 -36 59
-8 18 11 34 19 36 17 8 -9 -25 -102 -44 -121 -19 -21 -21 -35 -21 -125 l0
-102 42 0 42 0 -54 -55 -54 -55 -90 0 c-85 0 -91 -1 -143 -36 -30 -20 -80 -45
-111 -56 -72 -26 -206 -35 -281 -18 -58 13 -158 59 -200 91 -19 15 -41 19
-115 19 l-90 0 -48 47 c-26 26 -48 51 -48 55 0 4 16 8 35 8 l35 0 0 102 c0 90
-2 104 -21 125 -19 19 -52 112 -44 121 2 2 14 -3 27 -11 56 -36 62 -33 76 40
26 137 126 278 246 348 105 61 267 82 391 50z m-575 -20 c0 -8 12 -22 28 -32
15 -9 29 -18 31 -20 2 -1 -2 -10 -10 -19 -12 -14 -14 -14 -21 7 -8 21 -10 21
-25 7 -16 -16 -10 -43 8 -33 11 8 11 -6 0 -24 -8 -12 -15 -8 -36 17 -15 18
-33 32 -41 32 -10 0 -5 13 17 40 34 42 49 50 49 25z m940 -30 c12 -14 6 -35
-10 -35 -5 0 -7 7 -3 16 4 12 2 15 -8 12 -8 -3 -13 -15 -11 -30 2 -14 -4 -31
-13 -38 -14 -11 -19 -10 -37 7 -11 12 -17 26 -14 32 11 17 27 13 24 -5 -2 -10
3 -19 11 -22 11 -3 12 2 7 23 -11 44 27 73 54 40z m19 -98 c-22 -10 -39 -26
-39 -36 -1 -14 -3 -13 -15 3 -19 25 -19 37 -2 30 8 -3 27 8 43 23 24 24 31 26
40 14 9 -12 4 -18 -27 -34z m-1017 7 c23 -12 29 -21 26 -42 -4 -34 -30 -40
-74 -16 -35 19 -41 28 -24 39 6 3 10 2 10 -3 0 -16 60 -36 71 -25 14 14 -37
54 -58 46 -13 -5 -14 -3 -2 18 7 15 14 19 17 11 2 -7 17 -19 34 -28z m1103
-94 c-10 -16 -28 -11 -21 5 7 18 -4 19 -39 3 -14 -6 -25 -18 -25 -27 -1 -13
-3 -12 -15 3 -18 24 -19 39 -2 33 15 -5 67 20 67 34 0 6 -4 7 -10 4 -5 -3 -10
-2 -10 4 0 5 6 11 13 14 14 5 51 -59 42 -73z m-1195 13 c0 -5 16 -19 35 -32
43 -29 45 -45 5 -36 -20 4 -30 3 -30 -5 0 -7 -8 -9 -22 -4 -30 9 -30 8 -22 28
5 12 10 14 20 5 7 -6 21 -9 31 -7 15 4 13 7 -9 18 -27 13 -39 40 -18 40 6 0
10 -3 10 -7z m1220 -55 c0 -6 -8 -17 -17 -25 -17 -13 -16 -14 4 -10 14 3 24
-1 28 -11 8 -21 2 -24 -33 -11 -22 7 -36 7 -51 -1 -12 -6 -21 -9 -21 -6 0 2
-3 11 -6 20 -4 11 0 14 16 13 13 -1 31 9 44 24 21 26 36 29 36 7z m-1175 -46
c11 -6 18 -12 15 -12 -3 -1 -30 -2 -61 -3 -46 -2 -55 1 -52 14 5 18 67 19 98
1z m852 -683 c-3 -11 -1 -19 5 -19 6 0 8 -9 5 -20 -3 -11 -2 -18 3 -15 9 6 21
-31 12 -39 -3 -3 -13 -6 -23 -6 -13 0 -16 6 -12 23 6 21 6 21 -15 -3 -12 -14
-21 -20 -22 -13 0 6 5 15 10 18 6 3 10 14 10 23 0 14 -2 13 -13 -2 -13 -17
-14 -17 -20 -2 -4 10 -1 19 8 23 9 3 15 10 14 17 -4 34 2 44 22 39 14 -4 19
-12 16 -24z m-527 17 c0 -2 -9 -25 -20 -51 -11 -25 -15 -43 -10 -40 15 9 12
-8 -5 -31 -14 -19 -14 -18 -15 4 0 20 -3 22 -39 16 -24 -4 -41 -2 -45 5 -4 6
0 11 8 11 9 0 16 5 16 10 0 6 8 11 18 11 16 1 16 2 0 6 -10 2 -18 9 -18 14 0
5 12 6 26 3 19 -5 25 -4 20 5 -5 7 1 11 14 11 11 0 23 7 26 15 5 13 24 22 24
11z m116 -83 c-10 -10 -19 5 -10 18 6 11 8 11 12 0 2 -7 1 -15 -2 -18z m68
-35 c-3 -55 -14 -97 -14 -53 0 15 -2 16 -17 4 -15 -13 -16 -12 -11 9 4 12 3
22 0 22 -4 0 -8 11 -8 23 -1 16 7 29 25 40 14 9 27 17 27 17 1 0 0 -28 -2 -62z
m178 12 c16 -29 16 -30 -2 -30 -11 0 -20 -4 -20 -10 0 -5 -5 -10 -11 -10 -6 0
-9 7 -5 15 3 8 0 15 -7 15 -7 0 -4 5 5 11 10 5 15 16 12 24 -11 27 11 15 28
-15z m-247 -32 c-8 -36 -20 -55 -27 -41 -8 13 11 73 23 73 7 0 8 -12 4 -32z"/>
<path d="M1417 1433 c-12 -12 -7 -22 8 -17 8 4 15 10 15 15 0 11 -14 12 -23 2z"/>
<path d="M1390 1385 c0 -8 7 -15 15 -15 9 0 12 6 9 15 -4 8 -10 15 -15 15 -5
0 -9 -7 -9 -15z"/>
<path d="M1500 1365 c0 -9 5 -15 11 -13 6 2 11 8 11 13 0 5 -5 11 -11 13 -6 2
-11 -4 -11 -13z"/>
<path d="M1099 1243 c0 -5 -2 -19 -5 -33 -2 -14 1 -32 6 -40 9 -13 11 -13 20
0 5 8 8 26 6 40 -3 14 -5 28 -5 33 -1 4 -5 7 -11 7 -5 0 -10 -3 -11 -7z"/>
<path d="M1004 1126 c9 -47 -19 -65 -65 -42 l-30 15 3 -32 c3 -32 3 -32 -44
-31 -42 0 -46 -2 -37 -18 17 -32 46 -40 78 -23 24 12 67 15 201 15 134 0 177
-3 201 -15 32 -17 61 -9 78 23 8 16 5 17 -25 14 -42 -5 -63 10 -56 43 4 24 4
24 -27 9 -46 -23 -74 -5 -65 42 6 32 -6 48 -20 25 -7 -11 -165 -11 -172 0 -14
23 -26 7 -20 -25z"/>
<path d="M924 975 c-17 -13 -17 -14 -2 -15 9 0 20 5 23 11 11 17 0 20 -21 4z"/>
<path d="M973 983 c9 -2 23 -2 30 0 6 3 -1 5 -18 5 -16 0 -22 -2 -12 -5z"/>
<path d="M1038 983 c6 -2 18 -2 25 0 6 3 1 5 -13 5 -14 0 -19 -2 -12 -5z"/>
<path d="M1098 983 c6 -2 18 -2 25 0 6 3 1 5 -13 5 -14 0 -19 -2 -12 -5z"/>
<path d="M1163 983 c9 -2 23 -2 30 0 6 3 -1 5 -18 5 -16 0 -22 -2 -12 -5z"/>
<path d="M1223 983 c9 -2 23 -2 30 0 6 3 -1 5 -18 5 -16 0 -22 -2 -12 -5z"/>
<path d="M1270 980 c0 -12 28 -25 36 -17 3 3 -4 10 -15 17 -15 7 -21 7 -21 0z"/>
<path d="M670 918 c-39 -46 -46 -50 -81 -46 -44 4 -45 2 -23 -30 l15 -22 529
0 529 0 15 22 c22 32 21 34 -22 30 -34 -3 -42 1 -74 36 -19 21 -38 45 -41 53
-5 11 -8 10 -17 -4 -7 -10 -26 -34 -43 -53 -27 -31 -35 -35 -69 -32 -34 3 -39
1 -34 -15 3 -11 0 -17 -7 -14 -7 2 -14 12 -15 23 -7 36 -22 39 -23 4 l-2 -35
-6 33 c-8 43 -25 46 -29 5 -4 -41 -22 -44 -22 -4 0 17 -4 33 -10 36 -6 4 -10
-8 -10 -29 0 -45 -18 -47 -22 -3 -4 41 -21 38 -29 -5 l-6 -33 -4 35 c-5 44
-23 46 -27 3 -4 -41 -22 -44 -22 -4 0 17 -4 33 -10 36 -6 4 -10 -8 -10 -29 0
-45 -18 -47 -22 -3 -2 17 -7 30 -13 27 -5 -3 -8 -11 -7 -19 2 -7 0 -20 -4 -30
-6 -12 -9 -8 -13 17 -8 43 -25 46 -29 5 -4 -44 -22 -42 -22 2 0 19 -4 35 -10
35 -5 0 -10 -16 -10 -35 0 -44 -18 -46 -22 -2 -2 17 -7 30 -13 27 -5 -3 -8
-15 -7 -27 2 -11 -2 -24 -7 -28 -7 -4 -11 6 -12 27 l-1 33 -14 -32 c-8 -18
-19 -33 -24 -33 -7 0 -7 6 -1 19 10 18 8 19 -29 14 -45 -6 -59 2 -100 59 l-27
36 -43 -50z"/>
<path d="M765 930 c8 -14 695 -14 695 0 0 6 -124 10 -351 10 -231 0 -348 -3
-344 -10z"/>
<path d="M800 900 c0 -5 5 -10 11 -10 5 0 7 5 4 10 -3 6 -8 10 -11 10 -2 0 -4
-4 -4 -10z"/>
<path d="M845 900 c-3 -5 -1 -10 4 -10 6 0 11 5 11 10 0 6 -2 10 -4 10 -3 0
-8 -4 -11 -10z"/>
<path d="M1360 900 c0 -5 5 -10 10 -10 6 0 10 5 10 10 0 6 -4 10 -10 10 -5 0
-10 -4 -10 -10z"/>
<path d="M1405 900 c-3 -5 -1 -10 4 -10 6 0 11 5 11 10 0 6 -2 10 -4 10 -3 0
-8 -4 -11 -10z"/>
<path d="M978 803 l-118 -4 0 -77 0 -77 250 0 250 0 0 78 0 77 -104 0 c-57 0
-116 1 -132 3 -16 2 -82 2 -146 0z m-5 -30 c-13 -2 -35 -2 -50 0 -16 2 -5 4
22 4 28 0 40 -2 28 -4z m105 0 c-10 -2 -26 -2 -35 0 -10 3 -2 5 17 5 19 0 27
-2 18 -5z m100 0 c-10 -2 -26 -2 -35 0 -10 3 -2 5 17 5 19 0 27 -2 18 -5z
m125 0 c-13 -2 -35 -2 -50 0 -16 2 -5 4 22 4 28 0 40 -2 28 -4z m-416 -90 c-2
-16 -4 -3 -4 27 0 30 2 43 4 28 2 -16 2 -40 0 -55z m101 25 l3 -48 -45 0 -46
0 0 38 c0 47 16 64 55 60 28 -3 30 -6 33 -50z m32 2 c0 -27 -4 -50 -10 -50
-11 0 -14 83 -3 93 12 12 13 8 13 -43z m154 44 c11 -4 16 -19 16 -50 0 -40 -2
-44 -25 -44 -21 0 -25 5 -25 29 0 16 6 32 13 34 6 3 -9 6 -35 6 l-46 1 3 -35
c3 -31 0 -35 -21 -35 -22 0 -24 4 -24 44 0 26 5 46 13 49 18 8 113 8 131 1z
m130 0 c11 -4 16 -19 16 -50 l0 -44 -45 0 -45 0 0 44 c0 26 5 46 13 49 18 8
43 8 61 1z m46 -44 c0 -21 -4 -42 -10 -45 -6 -4 -10 13 -10 45 0 32 4 49 10
45 6 -3 10 -24 10 -45z m-130 -5 c0 -25 -4 -45 -10 -45 -5 0 -10 20 -10 45 0
25 5 45 10 45 6 0 10 -20 10 -45z"/>
<path d="M598 690 l-3 -110 118 0 117 0 0 110 0 110 -114 0 -115 0 -3 -110z
m80 47 c2 -12 -3 -17 -17 -17 -15 0 -21 6 -21 21 0 25 33 22 38 -4z m52 3 c0
-13 -7 -20 -20 -20 -19 0 -27 20 -13 33 13 14 33 6 33 -13z m50 0 c0 -11 -7
-20 -15 -20 -8 0 -15 9 -15 20 0 11 7 20 15 20 8 0 15 -9 15 -20z"/>
<path d="M1390 690 l0 -110 115 0 115 0 0 110 0 110 -115 0 -115 0 0 -110z
m80 50 c0 -11 -7 -20 -15 -20 -8 0 -15 9 -15 20 0 11 7 20 15 20 8 0 15 -9 15
-20z m58 -3 c2 -12 -3 -17 -17 -17 -15 0 -21 6 -21 21 0 25 33 22 38 -4z m52
3 c0 -13 -7 -20 -20 -20 -19 0 -27 20 -13 33 13 14 33 6 33 -13z"/>
<path d="M998 623 c68 -2 176 -2 240 0 64 1 9 3 -123 3 -132 0 -185 -2 -117
-3z"/>
<path d="M988 603 c67 -2 177 -2 245 0 67 1 12 3 -123 3 -135 0 -190 -2 -122
-3z"/>
<path d="M983 583 c70 -2 184 -2 255 0 70 1 12 3 -128 3 -140 0 -198 -2 -127
-3z"/>
<path d="M555 550 c4 -6 200 -10 555 -10 355 0 551 4 555 10 4 7 -183 10 -555
10 -372 0 -559 -3 -555 -10z"/>
<path d="M585 520 c4 -6 190 -10 525 -10 335 0 521 4 525 10 4 7 -173 10 -525
10 -352 0 -529 -3 -525 -10z"/>
<path d="M972 445 c0 -16 2 -22 5 -12 2 9 2 23 0 30 -3 6 -5 -1 -5 -18z"/>
<path d="M1043 443 c-1 -16 2 -21 7 -13 5 7 13 9 21 5 8 -5 5 1 -5 13 -11 12
-20 22 -20 22 -1 0 -2 -12 -3 -27z"/>
<path d="M1130 461 c0 -6 4 -13 10 -16 6 -3 7 1 4 9 -7 18 -14 21 -14 7z"/>
<path d="M630 1306 c0 -8 4 -17 9 -20 11 -7 33 18 24 27 -12 12 -33 7 -33 -7z"/>
<path d="M798 293 c7 -3 16 -2 19 1 4 3 -2 6 -13 5 -11 0 -14 -3 -6 -6z"/>
<path d="M2104 679 c-3 -6 -1 -16 5 -22 8 -8 11 -5 11 11 0 24 -5 28 -16 11z"/>
<path d="M2105 410 c3 -5 8 -10 11 -10 2 0 4 5 4 10 0 6 -5 10 -11 10 -5 0 -7
-4 -4 -10z"/>
</g>
</svg>
