<?xml version="1.0" standalone="no"?>
<!DOCTYPE svg PUBLIC "-//W3C//DTD SVG 20010904//EN"
 "http://www.w3.org/TR/2001/REC-SVG-20010904/DTD/svg10.dtd">
<svg version="1.0" xmlns="http://www.w3.org/2000/svg"
 width="144.000000pt" height="132.000000pt" viewBox="0 0 144.000000 132.000000"
 preserveAspectRatio="xMidYMid meet">

<g transform="translate(0.000000,132.000000) scale(0.100000,-0.100000)"
fill="#000000" stroke="none">
<path d="M594 1205 c-191 -41 -342 -183 -410 -385 -26 -76 -26 -234 0 -310 69
-204 220 -344 415 -386 184 -39 361 15 497 150 114 114 164 233 164 391 0 158
-50 277 -164 391 -136 135 -317 189 -502 149z m251 -20 c33 -9 85 -28 115 -43
78 -39 189 -151 228 -232 34 -69 62 -179 62 -245 0 -66 -28 -176 -62 -245 -39
-81 -150 -193 -228 -232 -168 -84 -380 -74 -531 23 -148 95 -235 243 -246 419
-12 185 64 354 207 461 130 98 302 133 455 94z"/>
<path d="M712 1135 c18 -20 34 -31 36 -26 4 13 -39 61 -56 61 -8 0 0 -14 20
-35z"/>
<path d="M822 1125 c-5 -19 -6 -35 -2 -35 11 0 30 59 21 64 -4 3 -13 -10 -19
-29z"/>
<path d="M563 1118 c7 -17 18 -33 24 -35 6 -2 4 11 -6 31 -20 44 -36 47 -18 4z"/>
<path d="M916 1114 c-9 -25 -7 -64 4 -64 6 0 10 18 10 40 0 43 -4 50 -14 24z"/>
<path d="M612 1062 c-13 -4 31 -7 97 -7 66 0 113 3 103 7 -22 8 -169 8 -200 0z"/>
<path d="M380 1039 c0 -22 16 -41 31 -37 10 2 8 9 -8 27 -15 16 -23 19 -23 10z"/>
<path d="M440 1041 c0 -5 5 -13 10 -16 6 -3 10 -2 10 4 0 5 -4 13 -10 16 -5 3
-10 2 -10 -4z"/>
<path d="M515 1021 c-67 -38 -140 -118 -173 -189 -24 -51 -27 -69 -27 -167 0
-98 3 -116 27 -167 33 -71 106 -151 173 -189 28 -16 55 -29 60 -29 6 0 -16 15
-48 32 -60 32 -136 108 -164 162 -56 108 -56 274 0 382 28 54 104 130 164 162
32 17 54 32 48 32 -5 0 -32 -13 -60 -29z"/>
<path d="M886 1025 c27 -13 73 -48 101 -76 125 -123 156 -306 78 -464 -31 -65
-114 -148 -179 -180 -28 -14 -43 -25 -35 -25 28 0 134 76 172 122 20 24 49 71
64 104 25 52 28 71 28 159 0 88 -3 107 -28 159 -15 33 -44 80 -64 104 -38 46
-144 122 -172 122 -8 0 7 -11 35 -25z"/>
<path d="M1011 1026 c-12 -13 -19 -26 -14 -29 4 -2 18 9 31 24 28 35 15 39
-17 5z"/>
<path d="M593 1022 c-101 -36 -170 -99 -221 -202 -24 -49 -27 -66 -27 -155 0
-90 3 -106 29 -160 38 -76 110 -149 184 -183 49 -23 70 -27 152 -27 82 0 103
4 152 27 156 73 247 240 219 402 -22 125 -104 231 -219 284 -76 35 -194 41
-269 14z m91 -58 c9 -22 7 -197 -2 -209 -4 -6 -32 -23 -63 -38 -53 -25 -124
-90 -160 -146 -19 -29 -49 -23 -49 10 0 35 74 123 141 168 33 22 65 41 70 41
5 0 9 14 9 31 0 27 -3 30 -22 23 -34 -10 -79 -34 -114 -60 -37 -28 -59 -30
-69 -6 -11 29 74 93 178 131 19 7 27 18 27 34 0 13 3 27 7 30 12 13 41 7 47
-9z m114 -20 c3 -26 9 -33 41 -42 21 -7 66 -30 100 -52 50 -32 62 -45 59 -63
-4 -31 -32 -33 -70 -4 -31 23 -111 67 -123 67 -3 0 -5 -13 -5 -29 0 -25 8 -34
53 -59 54 -30 141 -117 160 -160 8 -18 7 -26 -7 -40 -17 -16 -20 -15 -54 28
-59 71 -93 101 -152 129 l-55 26 -3 105 c-3 120 0 133 30 128 17 -2 24 -11 26
-34z m-58 -243 c0 -10 16 -24 41 -35 53 -24 109 -81 145 -150 24 -46 26 -56
15 -70 -7 -9 -17 -16 -22 -16 -5 0 -27 29 -50 65 -61 96 -129 146 -129 94 0
-12 17 -38 39 -59 40 -39 78 -119 68 -145 -12 -29 -45 -17 -57 20 -15 46 -57
95 -80 95 -21 0 -50 -37 -73 -92 -17 -40 -50 -52 -61 -22 -9 24 33 111 70 144
35 30 47 80 20 80 -21 0 -84 -69 -115 -125 -18 -33 -34 -50 -47 -50 -71 0 39
186 135 230 23 10 41 24 41 31 0 17 30 33 47 27 7 -3 13 -13 13 -22z"/>
<path d="M323 952 c-18 -2 -33 -7 -33 -12 0 -7 68 -3 78 5 8 7 -16 10 -45 7z"/>
<path d="M1093 943 c-13 -8 -23 -20 -23 -25 0 -6 7 -4 16 3 15 12 16 10 10
-21 -5 -31 -5 -32 6 -12 6 12 17 22 25 22 7 0 13 4 13 10 0 5 -7 7 -15 4 -8
-4 -15 -1 -15 5 0 6 5 11 10 11 6 0 10 5 10 10 0 14 -11 12 -37 -7z"/>
<path d="M240 852 c0 -5 16 -13 35 -19 44 -14 47 1 4 16 -38 13 -39 13 -39 3z"/>
<path d="M1157 843 c-2 -5 -7 -21 -11 -38 -6 -26 -6 -28 7 -15 19 20 31 60 18
60 -5 0 -12 -3 -14 -7z"/>
<path d="M250 740 c-12 -12 -25 -18 -30 -15 -6 4 -10 2 -10 -3 0 -10 61 -23
70 -15 2 2 -2 8 -10 13 -13 8 -12 12 5 24 11 9 14 16 8 16 -7 0 -22 -9 -33
-20z"/>
<path d="M1173 722 c-18 -2 -33 -7 -33 -12 0 -8 58 -3 69 6 8 7 -4 9 -36 6z"/>
<path d="M241 613 c-1 -7 -8 -13 -16 -13 -8 0 -15 -5 -15 -11 0 -6 7 -8 16 -5
9 3 24 6 35 6 10 0 19 5 19 11 0 6 -6 9 -14 6 -8 -3 -17 -1 -20 6 -3 9 -5 9
-5 0z"/>
<path d="M1140 610 c0 -5 17 -10 38 -9 30 0 33 2 17 9 -28 12 -55 12 -55 0z"/>
<path d="M235 510 c-8 -13 5 -13 25 0 13 8 13 10 -2 10 -9 0 -20 -4 -23 -10z"/>
<path d="M1122 509 c5 -15 68 -21 68 -6 0 5 -10 7 -22 6 -13 -2 -29 0 -37 5
-9 6 -12 5 -9 -5z"/>
<path d="M273 494 c-18 -9 -30 -20 -27 -25 6 -11 64 17 64 31 0 12 1 13 -37
-6z"/>
<path d="M612 268 c31 -8 178 -8 200 0 10 4 -37 7 -103 7 -66 0 -110 -3 -97
-7z"/>
<path d="M526 262 c-13 -21 -25 -62 -18 -62 9 0 34 62 28 68 -2 2 -7 -1 -10
-6z"/>
<path d="M870 248 c0 -10 5 -18 10 -18 6 0 9 -3 9 -7 -3 -20 2 -33 12 -33 8 0
9 4 0 13 -15 19 -1 30 17 14 13 -10 14 -9 10 3 -2 8 -13 17 -24 19 -10 2 -22
8 -26 15 -5 7 -8 5 -8 -6z"/>
<path d="M627 204 c-3 -16 -1 -33 4 -39 7 -7 8 -4 4 8 -8 20 20 25 28 5 3 -7
6 -3 6 10 1 13 -3 21 -8 17 -6 -3 -14 2 -19 11 -8 14 -10 12 -15 -12z"/>
<path d="M757 223 c-10 -9 -9 -33 1 -33 4 0 8 9 8 20 0 23 0 22 -9 13z"/>
<path d="M786 204 c4 -38 14 -42 14 -6 0 18 -4 32 -9 32 -4 0 -7 -12 -5 -26z"/>
</g>
</svg>
